<svg width="24" height="24" viewBox="0 0 24 24" fill="none" xmlns="http://www.w3.org/2000/svg">
<path d="M4.80738 9.49553C4.40889 9.87792 4.39583 10.511 4.77822 10.9094C5.16061 11.3079 5.79364 11.321 6.19213 10.9386L4.80738 9.49553ZM12.4998 3.5L13.1921 2.77846C12.8052 2.40718 12.1943 2.40718 11.8074 2.77846L12.4998 3.5ZM18.8074 10.9386C19.2059 11.321 19.8389 11.3079 20.2213 10.9094C20.6037 10.511 20.5906 9.87792 20.1921 9.49553L18.8074 10.9386ZM13.5315 4.76688C13.5315 4.21459 13.0838 3.76688 12.5315 3.76688C11.9792 3.76688 11.5315 4.21459 11.5315 4.76688H13.5315ZM11.5315 20.4999C11.5315 21.0522 11.9792 21.4999 12.5315 21.4999C13.0838 21.4999 13.5315 21.0522 13.5315 20.4999H11.5315ZM6.19213 10.9386L13.1921 4.22154L11.8074 2.77846L4.80738 9.49553L6.19213 10.9386ZM11.8074 4.22154L18.8074 10.9386L20.1921 9.49553L13.1921 2.77846L11.8074 4.22154ZM11.5315 4.76688V20.4999H13.5315V4.76688H11.5315Z" fill="black"/>
</svg>
