<svg width="24" height="24" viewBox="0 0 24 24" fill="none" xmlns="http://www.w3.org/2000/svg">
<g clip-path="url(#clip0_7_654)">
<path d="M22.9091 0H14.1818C13.5793 0 13.0909 0.488438 13.0909 1.09092C13.0909 1.69341 13.5793 2.18184 14.1818 2.18184H20.2754L9.04683 13.4105C8.62078 13.8365 8.62078 14.5272 9.04683 14.9532C9.25978 15.1662 9.53897 15.2727 9.81816 15.2727C10.0973 15.2727 10.3766 15.1663 10.5896 14.9532L21.8182 3.72459V9.8182C21.8182 10.4207 22.3066 10.9091 22.9091 10.9091C23.5116 10.9091 24 10.4207 24 9.8182V1.09092C24 0.488438 23.5116 0 22.9091 0Z" fill="white"/>
<path d="M18.5454 10.9092C17.943 10.9092 17.4545 11.3976 17.4545 12.0001V21.8183H2.1818V6.54557H12C12.6025 6.54557 13.0909 6.05713 13.0909 5.45464C13.0909 4.85216 12.6025 4.36377 12 4.36377H1.09092C0.488438 4.36377 0 4.85221 0 5.45469V22.9093C0 23.5117 0.488438 24.0001 1.09092 24.0001H18.5455C19.148 24.0001 19.6364 23.5117 19.6364 22.9092V12.0001C19.6364 11.3976 19.1479 10.9092 18.5454 10.9092Z" fill="white"/>
</g>
<defs>
<clipPath id="clip0_7_654">
<rect width="24" height="24" fill="white"/>
</clipPath>
</defs>
</svg>
