<?xml version="1.0" encoding="UTF-8"?>
<!-- Generated by Pixelmator Pro 3.6.14 -->
<svg width="500" height="500" viewBox="0 0 500 500" xmlns="http://www.w3.org/2000/svg">
    <path id="Circle" fill="#ffffff" fill-rule="evenodd" stroke="none" d="M 500 250 C 500 111.928802 388.071198 0 250 0 C 111.92881 0 -0 111.928802 -0 250 C -0 388.071198 111.92881 500 250 500 C 388.071198 500 500 388.071198 500 250 Z"/>
    <g id="Group">
        <path id="path2" fill="#1d3557" stroke="none" d="M 263.526031 311.046875 C 264.708344 309.145844 265.833344 307.213562 266.895844 305.25 C 267.614594 303.9375 268.307281 302.609375 268.96875 301.260437 C 270.296875 298.578125 271.526031 295.828125 272.645844 293.026062 C 272.927094 292.328125 273.208344 291.619812 273.473969 290.916687 C 273.71875 290.255219 273.96875 289.588562 274.208344 288.916687 C 274.296875 288.645844 274.390625 288.385437 274.484375 288.119812 C 274.65625 287.630219 274.822906 287.135437 274.994781 286.640625 C 275.140625 286.192719 275.28125 285.75 275.427094 285.307312 C 275.515625 285.03125 275.604156 284.75 275.6875 284.473969 C 275.817719 284.057312 275.947906 283.640625 276.067719 283.223969 C 276.229156 282.703125 276.380219 282.166687 276.53125 281.635437 C 276.677094 281.119812 276.822906 280.598969 276.963531 280.078125 C 277.135406 279.427094 277.307281 278.776062 277.46875 278.125 C 277.583344 277.661469 277.697906 277.197937 277.807281 276.739594 C 277.885406 276.416687 277.953125 276.098969 278.026031 275.776062 C 278.130219 275.348969 278.223969 274.916687 278.307281 274.494812 C 278.395844 274.114594 278.46875 273.739594 278.546875 273.364594 C 278.625 273.010437 278.692719 272.645844 278.765625 272.286469 C 278.989594 271.140625 279.203125 269.973969 279.390625 268.802094 C 279.515625 268.036469 279.635406 267.276062 279.744781 266.5 C 279.864594 265.640625 279.973969 264.786469 280.078125 263.932312 C 280.125 263.541687 280.177094 263.145844 280.213531 262.75 C 280.338531 261.630219 280.442719 260.510437 280.536469 259.385437 C 280.5625 259.046875 280.588531 258.713562 280.614594 258.375 C 280.645844 257.958344 280.671875 257.552094 280.697906 257.140625 C 280.713531 256.760437 280.739594 256.385437 280.760406 256.005219 C 280.78125 255.479172 280.8125 254.947922 280.828125 254.416672 C 280.838531 254.145844 280.848969 253.869797 280.859375 253.588547 C 280.895844 252.395844 280.911469 251.203125 280.911469 250.005219 C 280.911469 243.802094 280.421875 237.708344 279.479156 231.765625 C 279.473969 231.697937 279.463531 231.630219 279.447906 231.5625 C 279.34375 230.901062 279.229156 230.239594 279.114594 229.578125 L 279.098969 229.510437 C 278.973969 228.807312 278.84375 228.104187 278.708344 227.40625 C 278.286469 225.307312 277.817719 223.223969 277.286469 221.171875 L 277.286469 221.166687 C 272.34375 201.984375 262.59375 184.697937 249.411453 170.692719 L 249.46875 170.692719 C 228.364578 148.25 198.395828 134.239594 165.15625 134.239594 L 50.015625 134.239594 L 50.015625 170.692719 L 165.15625 170.692719 C 208.885422 170.692719 244.458328 206.270844 244.458328 249.994797 C 244.458328 271.171875 236.21875 291.09375 221.234375 306.072937 C 206.260422 321.052094 186.333328 329.302094 165.15625 329.302094 L 50.015625 329.302094 L 50.015625 365.760437 L 165.15625 365.760437 C 198.619797 365.760437 228.765625 351.5625 249.895828 328.854187 C 250.536453 328.171875 251.15625 327.494812 251.765625 326.796875 C 252.380203 326.104187 252.984375 325.40625 253.588547 324.703125 C 253.96875 324.244812 254.354172 323.786469 254.723953 323.322937 C 254.880203 323.140625 255.03125 322.963562 255.177078 322.786469 C 255.489578 322.395844 255.802078 322.005219 256.109375 321.609375 L 256.151031 321.552094 C 256.333344 321.333344 256.510406 321.109375 256.677094 320.885437 C 256.791656 320.729187 256.916656 320.572937 257.03125 320.416687 C 257.15625 320.260437 257.276031 320.109375 257.395844 319.947937 C 257.598969 319.677094 257.802094 319.411469 258.005219 319.130219 C 258.177094 318.911469 258.34375 318.682312 258.510406 318.453125 C 258.854156 317.984375 259.192719 317.515625 259.526031 317.046875 C 259.619781 316.916687 259.71875 316.78125 259.8125 316.640625 C 259.953125 316.453125 260.088531 316.260437 260.21875 316.072937 C 260.442719 315.739594 260.671875 315.40625 260.895844 315.078125 C 260.963531 314.989594 261.026031 314.890625 261.083344 314.807312 C 261.916656 313.572937 262.729156 312.322937 263.515625 311.057312 Z M 428.895844 250.005219 C 429.380219 249.536469 429.880219 249.083344 430.364594 248.598969 C 443.015625 235.942719 449.989594 219.125 449.989594 201.229187 C 449.989594 164.296875 419.932281 134.239594 382.994781 134.239594 L 262.994781 134.239594 C 275.546875 144.552094 286.380219 156.869812 295.015625 170.692719 L 382.994781 170.692719 C 399.828125 170.692719 413.53125 184.395844 413.53125 201.229187 C 413.53125 209.385437 410.348969 217.052094 404.588531 222.828125 C 398.822906 228.598969 391.151031 231.765625 382.994781 231.765625 L 316.609375 231.765625 C 317.333344 237.75 317.708344 243.828125 317.708344 250.005219 C 317.708344 256.171875 317.333344 262.25 316.609375 268.223969 L 382.994781 268.223969 C 399.828125 268.223969 413.53125 281.921875 413.53125 298.760437 C 413.53125 306.911469 410.348969 314.588562 404.588531 320.354187 C 398.817719 326.119812 391.145844 329.302094 382.994781 329.302094 L 295.015625 329.302094 C 286.380219 343.130219 275.546875 355.4375 262.994781 365.760437 L 382.994781 365.760437 C 400.890625 365.760437 417.703125 358.786469 430.375 346.130219 C 443.020844 333.46875 449.989594 316.640625 449.989594 298.760437 C 449.989594 279.5625 441.869781 262.234375 428.895844 250.005219"/>
    </g>
    <g id="g1">
        <path id="path3" fill="#00b4d8" stroke="none" d="M 249.489578 329.302094 C 249.630203 329.15625 249.765625 329.005219 249.895828 328.854187 C 228.765625 351.5625 198.619797 365.760437 165.15625 365.760437 L 262.994781 365.760437 C 275.546875 355.4375 286.380219 343.130219 295.015625 329.302094 Z M 316.609375 231.765625 L 279.479156 231.765625 C 280.421875 237.708344 280.911469 243.802094 280.911469 250.005219 C 280.911469 256.119812 280.432281 262.130219 279.515625 267.989594 C 279.609375 268.0625 279.703125 268.135437 279.791656 268.223969 L 316.609375 268.223969 C 317.333344 262.25 317.708344 256.171875 317.708344 250.005219 C 317.708344 243.828125 317.333344 237.75 316.609375 231.765625 Z M 295.015625 170.692719 L 249.46875 170.692719 C 228.364578 148.25 198.395828 134.239594 165.15625 134.239594 L 262.994781 134.239594 C 275.546875 144.552094 286.380219 156.869812 295.015625 170.692719"/>
    </g>
</svg>
